<svg width="28" height="28" viewBox="0 0 28 28" fill="none" xmlns="http://www.w3.org/2000/svg">
<path d="M25.2994 8.85191C25.9463 8.85191 26.5667 9.10889 27.0241 9.56631C27.4815 10.0237 27.7385 10.6441 27.7385 11.291V16.1692C27.7385 16.8161 27.4815 17.4365 27.0241 17.8939C26.5667 18.3514 25.9463 18.6083 25.2994 18.6083H24.0042C23.7069 20.9661 22.5594 23.1343 20.777 24.7061C18.9946 26.2779 16.6998 27.1452 14.3234 27.1452V24.7061C16.2641 24.7061 18.1253 23.9352 19.4975 22.5629C20.8698 21.1907 21.6407 19.3295 21.6407 17.3888V10.0715C21.6407 8.13079 20.8698 6.2696 19.4975 4.89733C18.1253 3.52507 16.2641 2.75414 14.3234 2.75414C12.3827 2.75414 10.5216 3.52507 9.14929 4.89733C7.77702 6.2696 7.00609 8.13079 7.00609 10.0715V18.6083H3.34743C2.70054 18.6083 2.08014 18.3514 1.62272 17.8939C1.1653 17.4365 0.908325 16.8161 0.908325 16.1692V11.291C0.908325 10.6441 1.1653 10.0237 1.62272 9.56631C2.08014 9.10889 2.70054 8.85191 3.34743 8.85191H4.6426C4.94021 6.49438 6.08787 4.32648 7.87024 2.75496C9.65261 1.18345 11.9472 0.316345 14.3234 0.316345C16.6997 0.316345 18.9942 1.18345 20.7766 2.75496C22.559 4.32648 23.7066 6.49438 24.0042 8.85191H25.2994ZM9.15251 18.3461L10.4452 16.2778C11.6076 17.0059 12.9519 17.391 14.3234 17.3888C15.695 17.391 17.0393 17.0059 18.2016 16.2778L19.4943 18.3461C17.9446 19.3171 16.1522 19.8307 14.3234 19.8279C12.4946 19.8307 10.7022 19.3171 9.15251 18.3461Z" fill="#F9995D"/>
</svg>
