<svg width="30" height="30" viewBox="0 0 30 30" fill="none" xmlns="http://www.w3.org/2000/svg">
<g clip-path="url(#clip0_143_171)">
<rect x="0.569214" y="12.7521" width="17.0737" height="17.0738" fill="#7595FD"/>
<path d="M23.7297 2.99579H11.5574C10.2025 2.99579 9.10608 4.09217 9.10608 5.44709V12.3217L3.37174 17.9829C3.19992 18.1528 3.08246 18.37 3.03427 18.6068C2.98607 18.8436 3.00931 19.0893 3.10104 19.3129C3.19277 19.5365 3.34885 19.7278 3.54947 19.8625C3.75009 19.9972 3.98621 20.0693 4.22787 20.0695V26.1673C4.22787 26.4908 4.35636 26.801 4.58507 27.0297C4.81378 27.2584 5.12397 27.3869 5.44742 27.3869H24.9603C25.2837 27.3869 25.5939 27.2584 25.8226 27.0297C26.0513 26.801 26.1798 26.4908 26.1798 26.1673V5.44587C26.1798 4.09217 25.0847 2.99579 23.7297 2.99579ZM13.8892 18.9854V24.9478H6.66697V18.1573L10.3098 14.5608L13.8892 18.2231V18.9854V18.9854ZM16.4234 11.5327H13.9843V9.09356H16.4234V11.5327ZM21.3016 21.2891H18.8625V18.85H21.3016V21.2891ZM21.3016 16.4109H18.8625V13.9718H21.3016V16.4109ZM21.3016 11.5327H18.8625V9.09356H21.3016V11.5327Z" fill="#292E3D"/>
<path d="M9.10608 18.85H11.5452V21.2891H9.10608V18.85Z" fill="#14171F"/>
</g>
<defs>
<clipPath id="clip0_143_171">
<rect width="29.2693" height="29.2693" fill="white" transform="translate(0.569214 0.556641)"/>
</clipPath>
</defs>
</svg>
