<svg width="30" height="30" viewBox="0 0 30 30" fill="none" xmlns="http://www.w3.org/2000/svg">
<g clip-path="url(#clip0_143_178)">
<rect x="0.578369" y="12.7521" width="17.0737" height="17.0738" fill="#7595FD"/>
<path d="M24.3597 4.21534C23.5513 4.21599 22.7762 4.53742 22.2045 5.10905C21.6329 5.68069 21.3115 6.45581 21.3108 7.26423C21.3108 7.69961 21.4059 8.11304 21.5718 8.48988L19.1876 11.1717C18.3776 10.6126 17.4168 10.3132 16.4326 10.3131C15.5301 10.3131 14.696 10.5765 13.9703 11.0034L11.1971 8.23133L11.169 8.25938C11.408 7.774 11.5544 7.23374 11.5544 6.65445C11.5544 5.93084 11.3398 5.22347 10.9378 4.62181C10.5358 4.02014 9.96437 3.5512 9.29583 3.27429C8.6273 2.99737 7.89166 2.92492 7.18195 3.06609C6.47224 3.20726 5.82033 3.55571 5.30866 4.06739C4.79699 4.57906 4.44853 5.23097 4.30736 5.94068C4.16619 6.65039 4.23865 7.38603 4.51556 8.05456C4.79248 8.72309 5.26142 9.2945 5.86308 9.69652C6.46474 10.0985 7.17211 10.3131 7.89572 10.3131C8.47501 10.3131 9.01405 10.1668 9.50066 9.92773L9.47261 9.95578L12.2459 12.7278C11.7979 13.4718 11.559 14.3229 11.5544 15.1913C11.5544 16.4072 12.0178 17.5073 12.7556 18.3634L9.61286 21.505C9.26061 21.364 8.88491 21.2907 8.5055 21.2891C6.82496 21.2891 5.45662 22.6562 5.45662 24.338C5.45662 26.0197 6.82496 27.3869 8.5055 27.3869C10.186 27.3869 11.5544 26.0197 11.5544 24.338C11.5544 23.9465 11.4739 23.5745 11.3385 23.2294L14.7996 19.7683C15.313 19.9512 15.857 20.0695 16.4326 20.0695C19.1229 20.0695 21.3108 17.8817 21.3108 15.1913C21.3108 14.4157 21.112 13.6925 20.7888 13.04L23.3706 10.1338C23.6828 10.2412 24.0121 10.3131 24.3597 10.3131C26.0415 10.3131 27.4086 8.94599 27.4086 7.26423C27.4086 5.58246 26.0415 4.21534 24.3597 4.21534ZM16.4326 17.6304C15.0874 17.6304 13.9935 16.5365 13.9935 15.1913C13.9935 13.8462 15.0874 12.7522 16.4326 12.7522C17.7778 12.7522 18.8717 13.8462 18.8717 15.1913C18.8717 16.5365 17.7778 17.6304 16.4326 17.6304Z" fill="white"/>
</g>
<defs>
<clipPath id="clip0_143_178">
<rect width="29.2693" height="29.2693" fill="white" transform="translate(0.578369 0.556641)"/>
</clipPath>
</defs>
</svg>
